paper_minjerk_fatigue_30cycles
version=1
nRows=146
nColumns=3
inDegrees=yes
endheader
time	r_shoulder_elev	r_elbow_flex
0.0000	20.000000	20.000000
0.0100	20.000000	20.000596
0.0200	20.000000	20.003045
0.0300	20.000000	20.008888
0.0400	20.000000	20.019566
0.0500	20.000000	20.036543
0.0600	20.000000	20.061364
0.0700	20.000000	20.095633
0.0800	20.000000	20.140908
0.0900	20.000000	20.198584
0.1000	20.000000	20.269824
0.1100	20.000000	20.355573
0.1200	20.000000	20.456655
0.1300	20.000000	20.573875
0.1400	20.000000	20.708100
0.1500	20.000000	20.860262
0.1600	20.000000	21.031322
0.1700	20.000000	21.222219
0.1800	20.000000	21.433847
0.1900	20.000000	21.667070
0.2000	20.000000	21.922735
0.2100	20.000000	22.201641
0.2200	20.000000	22.504450
0.2300	20.000000	22.831553
0.2400	20.000000	23.182984
0.2500	20.000000	23.558455
0.2600	20.000000	23.957543
0.2700	20.000000	24.379995
0.2800	20.000000	24.826014
0.2900	20.000000	25.296387
0.3000	20.000000	25.792346
0.3100	20.000000	26.315188
0.3200	20.000000	26.865787
0.3300	20.000000	27.444213
0.3400	20.000000	28.049646
0.3500	20.000000	28.680643
0.3600	20.000000	29.335683
0.3700	20.000000	30.013743
0.3800	20.000000	30.714668
0.3900	20.000000	31.439164
0.4000	20.000000	32.188410
0.4100	20.000000	32.963466
0.4200	20.000000	33.764722
0.4300	20.000000	34.591643
0.4400	20.000000	35.442879
0.4500	20.000000	36.316695
0.4600	20.000000	37.211488
0.4700	20.000000	38.126199
0.4800	20.000000	39.060445
0.4900	20.000000	40.014381
0.5000	20.000000	40.988398
0.5100	20.000000	41.982817
0.5200	20.000000	42.997699
0.5300	20.000000	44.032784
0.5400	20.000000	45.087507
0.5500	20.000000	46.161001
0.5600	20.000000	47.252059
0.5700	20.000000	48.359095
0.5800	20.000000	49.480217
0.5900	20.000000	50.613478
0.6000	20.000000	51.757292
0.6100	20.000000	52.910856
0.6200	20.000000	54.074368
0.6300	20.000000	55.248862
0.6400	20.000000	56.435637
0.6500	20.000000	57.635484
0.6600	20.000000	58.848010
0.6700	20.000000	60.071410
0.6800	20.000000	61.302823
0.6900	20.000000	62.539162
0.7000	20.000000	63.778047
0.7100	20.000000	65.018419
0.7200	20.000000	66.260520
0.7300	20.000000	67.505232
0.7400	20.000000	68.753107
0.7500	20.000000	70.003570
0.7600	20.000000	71.254720
0.7700	20.000000	72.503879
0.7800	20.000000	73.748632
0.7900	20.000000	74.987823
0.8000	20.000000	76.221979
0.8100	20.000000	77.452860
0.8200	20.000000	78.682303
0.8300	20.000000	79.910883
0.8400	20.000000	81.137063
0.8500	20.000000	82.357304
0.8600	20.000000	83.567152
0.8700	20.000000	84.762810
0.8800	20.000000	85.942455
0.8900	20.000000	87.106641
0.9000	20.000000	88.257552
0.9100	20.000000	89.397474
0.9200	20.000000	90.527243
0.9300	20.000000	91.645480
0.9400	20.000000	92.749054
0.9500	20.000000	93.834570
0.9600	20.000000	94.900133
0.9700	20.000000	95.946415
0.9800	20.000000	96.976368
0.9900	20.000000	97.993555
1.0000	20.000000	98.999845
1.0100	20.000000	99.993598
1.0200	20.000000	100.969368
1.0300	20.000000	101.919480
1.0400	20.000000	102.836949
1.0500	20.000000	103.718494
1.0600	20.000000	104.566241
1.0700	20.000000	105.387187
1.0800	20.000000	106.190511
1.0900	20.000000	106.983758
1.1000	20.000000	107.769541
1.1100	20.000000	108.544208
1.1200	20.000000	109.299123
1.1300	20.000000	110.024042
1.1400	20.000000	110.711151
1.1500	20.000000	111.358026
1.1600	20.000000	111.968269
1.1700	20.000000	112.549601
1.1800	20.000000	113.110328
1.1900	20.000000	113.655787
1.2000	20.000000	114.186333
1.2100	20.000000	114.697666
1.2200	20.000000	115.183228
1.2300	20.000000	115.637440
1.2400	20.000000	116.058271
1.2500	20.000000	116.447980
1.2600	20.000000	116.811802
1.2700	20.000000	117.155322
1.2800	20.000000	117.481863
1.2900	20.000000	117.791123
1.3000	20.000000	118.079671
1.3100	20.000000	118.342965
1.3200	20.000000	118.577860
1.3300	20.000000	118.784383
1.3400	20.000000	118.965950
1.3500	20.000000	119.127992
1.3600	20.000000	119.275709
1.3700	20.000000	119.412044
1.3800	20.000000	119.536814
1.3900	20.000000	119.647334
1.4000	20.000000	119.740147
1.4100	20.000000	119.812997
1.4200	20.000000	119.866139
1.4300	20.000000	119.902475
1.4400	20.000000	119.926591
1.4500	20.000000	119.943281
